M48
; DRILL file {KiCad 9.0.6-9.0.6~ubuntu24.04.1} date 2025-12-17T23:58:51+0100
; FORMAT={-:-/ absolute / metric / decimal}
; #@! TF.CreationDate,2025-12-17T23:58:51+01:00
; #@! TF.GenerationSoftware,Kicad,Pcbnew,9.0.6-9.0.6~ubuntu24.04.1
; #@! TF.FileFunction,Plated,1,2,PTH
FMAT,2
METRIC
; #@! TA.AperFunction,Plated,PTH,ViaDrill
T1C0.300
; #@! TA.AperFunction,Plated,PTH,ComponentDrill
T2C1.000
; #@! TA.AperFunction,Plated,PTH,ComponentDrill
T3C1.016
%
G90
G05
T1
X51.0Y-87.5
X51.5Y-85.0
X52.5Y-91.5
X54.5Y-89.5
X55.0Y-84.0
X63.5Y-84.5
X65.0Y-83.5
X67.5Y-86.0
X69.0Y-84.5
X79.5Y-85.0
X100.0Y-85.0
X119.5Y-85.0
T2
X51.75Y-106.75
X51.75Y-109.29
X54.29Y-106.75
X54.29Y-109.29
T3
X51.0Y-81.5
X53.54Y-81.5
X56.08Y-81.5
X58.62Y-81.5
X61.16Y-81.5
X63.7Y-81.5
X66.24Y-81.5
X68.78Y-81.5
X71.32Y-81.5
X73.86Y-81.5
X76.4Y-81.5
X78.94Y-81.5
X81.48Y-81.5
X84.02Y-81.5
X86.56Y-81.5
X89.1Y-81.5
X91.64Y-81.5
X94.18Y-81.5
X96.72Y-81.5
X99.26Y-81.5
X101.8Y-81.5
X104.34Y-81.5
X106.88Y-81.5
X109.42Y-81.5
X111.96Y-81.5
X114.5Y-81.5
X117.04Y-81.5
X119.58Y-81.5
X122.12Y-81.5
X124.66Y-81.5
M30
